<?xml version="1.0" standalone="no"?>
<svg xmlns="http://www.w3.org/2000/svg" viewBox="0 0 78.241 24.36" width="78.241" height="24.36"><g fill="#4000b0" color="#4000b0" transform="translate(0, 0) scale(0.58)"><svg width="50.0" height="42.0" x="0.0" y="0.0" viewBox="0 0 50 42"><path fill="currentColor" fill-rule="nonzero" d="M21.3 13.56l5.81 12.46-10.95-2.3-5.81-12.46 10.95 2.3zm20.86-9.73l5.81 12.46-10.95-2.3-5.81-12.46 10.95 2.3zm-8.91 36.83L8.44 36.19 16 24.99l12.1 2.54c.05.01.09.01.13.01.09 0 .18-.02.27-.06.01 0 .01-.01.01-.01.03-.01.05-.04.08-.06.03-.02.05-.05.08-.07.03-.03.07-.05.09-.08l8.11-12.01 11.19 2.35-14.81 23.06zm16.45-23.3c.01-.02.02-.03.03-.05.01-.05-.02-.08-.03-.13 0-.07.01-.13-.02-.2-.01-.02.01-.05-.01-.07L43.19 3c-.01-.02-.03-.02-.03-.03-.04-.07-.11-.11-.18-.16-.07-.05-.12-.11-.2-.14-.02-.01-.02-.02-.04-.03L30.22.01c-.04-.01-.08.03-.13.03-.07 0-.13 0-.19.02-.03.01-.06-.01-.08 0-.01.01-.02.03-.03.03-.05.03-.08.07-.12.12-.03.03-.08.03-.11.07l-8.11 12.01-12.1-2.54c-.05-.01-.08.02-.13.02-.07 0-.12 0-.19.02-.03.01-.06-.01-.08.01-.02.01-.02.03-.03.03-.05.03-.08.07-.12.12-.03.03-.08.03-.11.07L.34 22.37c-.02.02 0 .05-.02.08-.04.08-.04.15-.05.23-.01.08-.02.16.01.24.02.03 0 .05.01.08l6.49 13.91c.01.02.03.03.05.05.02.04.04.06.07.09.03.03.05.06.08.08.01.01.01.03.02.04 0 0 .01 0 .01.01.05.03.11.04.17.05.03.01.04.04.06.04l26.2 4.72a.61.61 0 0 0 .48-.12c.03-.02.05-.05.08-.07.03-.03.07-.05.1-.09l15.54-24.18c.02-.02 0-.05.01-.07.02-.04.03-.07.05-.1z"></path></svg></g><line x1="41" y1="1" x2="41" y2="23.36" stroke="#4000b0" stroke-linecap="round"></line><path fill="#4000b0" fill-rule="nonzero" d="M5.16 1.54L4.27 1.46Q4.22 0.94 4.22 0.74Q4.22 0.55 4.30 0.12L4.30 0.12Q4.94 0.14 6.25 0.14Q7.56 0.14 8.16 0.12L8.16 0.12Q8.23 0.48 8.23 0.66Q8.23 0.84 8.18 1.46L8.18 1.46L7.34 1.54Q7.18 3.82 7.18 9.43L7.18 9.43L7.18 13.10Q7.18 16.97 6.36 18.42Q5.54 19.87 3.36 19.87L3.36 19.87Q2.52 19.87 1.58 19.56Q0.65 19.25 0 18.77L0 18.77Q0.10 18.19 0.34 17.71Q0.58 17.23 0.77 17.04L0.77 17.04L0.96 16.87Q1.87 18.10 3.19 18.10Q4.51 18.10 4.94 16.96Q5.38 15.82 5.38 12.65L5.38 12.65L5.38 8.59Q5.38 3.65 5.16 1.54L5.16 1.54ZM11.90 1.54L11.02 1.46Q10.97 0.94 10.97 0.74Q10.97 0.55 11.04 0.12L11.04 0.12Q11.69 0.14 13.00 0.14Q14.30 0.14 14.90 0.12L14.90 0.12Q14.98 0.48 14.98 0.66Q14.98 0.84 14.93 1.46L14.93 1.46L14.09 1.54Q13.92 3.82 13.92 9.43L13.92 9.43L13.92 13.10Q13.92 16.97 13.10 18.42Q12.29 19.87 10.10 19.87L10.10 19.87Q9.26 19.87 8.33 19.56Q7.39 19.25 6.74 18.77L6.74 18.77Q6.84 18.19 7.08 17.71Q7.32 17.23 7.51 17.04L7.51 17.04L7.70 16.87Q8.62 18.10 9.94 18.10Q11.26 18.10 11.69 16.96Q12.12 15.82 12.12 12.65L12.12 12.65L12.12 8.59Q12.12 3.65 11.90 1.54L11.90 1.54ZM20.09 13.73L20.09 13.73Q21.07 13.80 22.36 13.80Q23.64 13.80 25.61 13.63L25.61 13.63L25.68 11.98Q26.09 11.90 26.41 11.90Q26.74 11.90 27.02 11.93L27.02 11.93Q27.10 13.90 27.24 15.58L27.24 15.58L27.12 15.70Q25.42 15.48 22.32 15.48Q19.22 15.48 17.18 15.65L17.18 15.65Q17.04 15.29 17.02 14.78L17.02 14.78Q18.05 13.15 20.86 8.32Q23.66 3.48 24.70 1.80L24.70 1.80Q23.88 1.78 22.44 1.78Q21 1.78 19.03 1.94L19.03 1.94L18.96 3.72Q18.58 3.79 18.24 3.79Q17.90 3.79 17.62 3.77L17.62 3.77Q17.54 1.80 17.40 0.12L17.40 0.12L17.52 0Q19.30 0.22 22.72 0.22Q26.14 0.22 27.12 0.07L27.12 0.07Q27.24 0.31 27.24 0.98L27.24 0.98Q26.21 2.93 23.40 7.87Q20.59 12.82 20.09 13.73Z" transform="translate(51, 2.244)"></path></svg>